<svg width="24" height="25" viewBox="0 0 24 25" fill="none" xmlns="http://www.w3.org/2000/svg">
<circle cx="12" cy="12.3671" r="10" stroke="currentColor" stroke-width="1.8"/>
<path d="M11.7301 9.68013C12.3195 9.68013 12.7275 9.86146 12.9541 10.2241C13.1921 10.5755 13.3111 11.0515 13.3111 11.6521C13.3111 11.9241 13.2828 12.2925 13.2261 12.7571C13.1695 13.2218 13.1071 13.7091 13.0391 14.2191C12.9711 14.7291 12.9088 15.1938 12.8521 15.6131C12.7955 16.0325 12.7671 16.3385 12.7671 16.5311C12.7671 16.7125 12.7955 16.8315 12.8521 16.8881C12.9088 16.9448 12.9655 16.9731 13.0221 16.9731C13.1581 16.9731 13.2941 16.8768 13.4301 16.6841C13.5661 16.4915 13.7078 16.1401 13.8551 15.6301L14.7731 15.9021C14.7278 16.1401 14.6371 16.4121 14.5011 16.7181C14.3765 17.0241 14.2065 17.3188 13.9911 17.6021C13.7758 17.8741 13.5151 18.1008 13.2091 18.2821C12.9145 18.4635 12.5745 18.5541 12.1891 18.5541C11.5658 18.5541 11.1351 18.3841 10.8971 18.0441C10.6705 17.7041 10.5571 17.2338 10.5571 16.6331C10.5571 16.3045 10.5855 15.9135 10.6421 15.4601C10.6988 15.0068 10.7611 14.5421 10.8291 14.0661C10.9085 13.5901 10.9765 13.1481 11.0331 12.7401C11.0898 12.3208 11.1181 11.9751 11.1181 11.7031C11.1181 11.5105 11.0898 11.3915 11.0331 11.3461C10.9765 11.2895 10.9141 11.2611 10.8461 11.2611C10.7215 11.2611 10.5911 11.3575 10.4551 11.5501C10.3191 11.7428 10.1775 12.0941 10.0301 12.6041L9.11213 12.3321C9.15746 12.0941 9.24813 11.8221 9.38413 11.5161C9.52013 11.2101 9.69579 10.9211 9.91113 10.6491C10.1378 10.3658 10.3985 10.1335 10.6931 9.95213C10.9991 9.77079 11.3448 9.68013 11.7301 9.68013ZM12.3251 5.39613C12.6991 5.39613 12.9995 5.53213 13.2261 5.80413C13.4641 6.07613 13.5718 6.41046 13.5491 6.80713C13.5378 7.19246 13.4075 7.52113 13.1581 7.79313C12.9088 8.05379 12.5971 8.18413 12.2231 8.18413C11.8378 8.18413 11.5261 8.05379 11.2881 7.79313C11.0615 7.52113 10.9538 7.19246 10.9651 6.80713C10.9878 6.41046 11.1351 6.07613 11.4071 5.80413C11.6791 5.53213 11.9851 5.39613 12.3251 5.39613Z" fill="currentColor"/>
</svg>
