<svg width="24" height="24" viewBox="0 0 24 24" fill="none" xmlns="http://www.w3.org/2000/svg">
<path fill-rule="evenodd" clip-rule="evenodd" d="M1.09961 12C1.09961 5.9801 5.97971 1.10001 11.9996 1.10001C18.0195 1.10001 22.8996 5.9801 22.8996 12C22.8996 18.0199 18.0195 22.9 11.9996 22.9C5.97971 22.9 1.09961 18.0199 1.09961 12ZM13.2087 5.41999C12.9821 5.15933 12.6874 5.02899 12.3247 5.02899C11.9734 5.02899 11.6561 5.17632 11.3727 5.47099C11.1007 5.76566 10.9647 6.11132 10.9647 6.50799C10.9647 6.88199 11.0781 7.19366 11.3047 7.44299C11.5427 7.69232 11.8487 7.81699 12.2227 7.81699C12.5967 7.81699 12.9084 7.68099 13.1577 7.40899C13.4184 7.12566 13.5487 6.77999 13.5487 6.37199C13.5487 5.98666 13.4354 5.66932 13.2087 5.41999ZM12.9367 9.82299C12.6987 9.48299 12.2964 9.31299 11.7297 9.31299C11.2537 9.31299 10.8287 9.46033 10.4547 9.75499C10.0921 10.0383 9.79174 10.3897 9.55374 10.809C9.32707 11.217 9.17974 11.6023 9.11174 11.965L10.0297 12.237C10.2791 11.3417 10.5511 10.894 10.8457 10.894C11.0271 10.894 11.1177 11.0413 11.1177 11.336C11.1177 11.71 11.0327 12.4523 10.8627 13.563C10.6587 14.855 10.5567 15.756 10.5567 16.266C10.5567 16.912 10.6757 17.3937 10.9137 17.711C11.1631 18.0283 11.5881 18.187 12.1887 18.187C12.6647 18.187 13.0841 18.0453 13.4467 17.762C13.8094 17.4673 14.1041 17.116 14.3307 16.708C14.5574 16.3 14.7047 15.909 14.7727 15.535L13.8547 15.263C13.6054 16.1583 13.3277 16.606 13.0217 16.606C12.8517 16.606 12.7667 16.4587 12.7667 16.164C12.7667 15.9713 12.8007 15.6257 12.8687 15.127C12.9367 14.617 12.9821 14.2883 13.0047 14.141C13.0274 13.9483 13.0841 13.512 13.1747 12.832C13.2654 12.1407 13.3107 11.625 13.3107 11.285C13.3107 10.6503 13.1861 10.163 12.9367 9.82299Z" fill="currentColor"/>
</svg>
